{
	"asset":{
		"generator":"Khronos glTF Blender I/O v3.5.30",
		"version":"2.0"
	},
	"extensionsUsed":[
		"KHR_materials_specular",
		"KHR_materials_ior",
		"KHR_materials_emissive_strength"
	],
	"scene":0,
	"scenes":[
		{
			"name":"Scene",
			"nodes":[
				0,
				1,
				2,
				3
			]
		}
	],
	"nodes":[
		{
			"mesh":0,
			"name":"Text",
			"rotation":[
				0.5,
				0.5,
				-0.5,
				0.5
			],
			"scale":[
				0.05002116784453392,
				0.05002116784453392,
				0.05002116784453392
			],
			"translation":[
				-0.8217186331748962,
				0.05653674155473709,
				0.8481775522232056
			]
		},
		{
			"mesh":1,
			"name":"Cylinder",
			"rotation":[
				0.7071059346199036,
				0.0010861282935366035,
				0.0010861281771212816,
				0.7071059346199036
			],
			"scale":[
				0.020318804308772087,
				0.02637389674782753,
				0.026771031320095062
			],
			"translation":[
				-0.7976080179214478,
				0.0031659239903092384,
				1.409376859664917
			]
		},
		{
			"mesh":2,
			"name":"Cube",
			"scale":[
				0.835444986820221,
				0.021266896277666092,
				1.2649662494659424
			],
			"translation":[
				0,
				0.0026812702417373657,
				0.6839415431022644
			]
		},
		{
			"mesh":3,
			"name":"Plane.000",
			"rotation":[
				0,
				0.7071068286895752,
				0,
				0.7071068286895752
			],
			"scale":[
				0.2610029876232147,
				0.2610029876232147,
				0.2610029876232147
			],
			"translation":[
				-0.17284080386161804,
				0.02211444452404976,
				0.6733261942863464
			]
		}
	],
	"materials":[
		{
			"doubleSided":true,
			"name":"Material.001",
			"pbrMetallicRoughness":{}
		},
		{
			"doubleSided":true,
			"name":"Material.002",
			"pbrMetallicRoughness":{}
		},
		{
			"doubleSided":true,
			"name":"guyn",
			"pbrMetallicRoughness":{
				"baseColorTexture":{
					"index":0
				},
				"roughnessFactor":0.559482753276825
			}
		},
		{
			"doubleSided":true,
			"name":"obodok.001",
			"pbrMetallicRoughness":{
				"baseColorTexture":{
					"index":1
				},
				"roughnessFactor":0.559482753276825
			}
		},
		{
			"doubleSided":true,
			"name":"ekran",
			"pbrMetallicRoughness":{
				"baseColorTexture":{
					"index":2
				},
				"roughnessFactor":0.559482753276825
			}
		},
		{
			"doubleSided":true,
			"name":"logo",
			"pbrMetallicRoughness":{}
		},
		{
			"doubleSided":true,
			"name":"Material.003",
			"pbrMetallicRoughness":{}
		},
		{
			"doubleSided":true,
			"name":"Material.004",
			"pbrMetallicRoughness":{}
		},
		{
			"doubleSided":true,
			"name":"Material",
			"pbrMetallicRoughness":{
				"baseColorTexture":{
					"index":3
				},
				"roughnessFactor":0.559482753276825
			}
		},
		{
			"doubleSided":true,
			"extensions":{
				"KHR_materials_specular":{
					"specularColorFactor":[
						0,
						0,
						0
					]
				},
				"KHR_materials_ior":{
					"ior":1.4500000476837158
				}
			},
			"name":"Keys.004",
			"pbrMetallicRoughness":{
				"metallicFactor":0
			}
		},
		{
			"doubleSided":true,
			"emissiveFactor":[
				0.0980563759803772,
				1,
				0
			],
			"extensions":{
				"KHR_materials_emissive_strength":{
					"emissiveStrength":3
				}
			},
			"name":"Led.004",
			"pbrMetallicRoughness":{
				"baseColorFactor":[
					0,
					0,
					0,
					1
				]
			}
		}
	],
	"meshes":[
		{
			"name":"m",
			"primitives":[
				{
					"attributes":{
						"POSITION":0,
						"TEXCOORD_0":1,
						"NORMAL":2
					},
					"indices":3,
					"material":0
				}
			]
		},
		{
			"name":"Cylinder",
			"primitives":[
				{
					"attributes":{
						"POSITION":4,
						"TEXCOORD_0":5,
						"NORMAL":6
					},
					"indices":7,
					"material":1
				},
				{
					"attributes":{
						"POSITION":8,
						"TEXCOORD_0":9,
						"NORMAL":10
					},
					"indices":11,
					"material":2
				},
				{
					"attributes":{
						"POSITION":12,
						"TEXCOORD_0":13,
						"NORMAL":14
					},
					"indices":15,
					"material":3
				},
				{
					"attributes":{
						"POSITION":16,
						"TEXCOORD_0":17,
						"NORMAL":18
					},
					"indices":19,
					"material":4
				},
				{
					"attributes":{
						"POSITION":20,
						"TEXCOORD_0":21,
						"NORMAL":22
					},
					"indices":23,
					"material":5
				},
				{
					"attributes":{
						"POSITION":24,
						"TEXCOORD_0":25,
						"NORMAL":26
					},
					"indices":27,
					"material":6
				},
				{
					"attributes":{
						"POSITION":28,
						"TEXCOORD_0":29,
						"NORMAL":30
					},
					"indices":31,
					"material":7
				}
			]
		},
		{
			"name":"Cube",
			"primitives":[
				{
					"attributes":{
						"POSITION":32,
						"NORMAL":33
					},
					"indices":34,
					"material":8
				}
			]
		},
		{
			"name":"Plane.002",
			"primitives":[
				{
					"attributes":{
						"POSITION":35,
						"TEXCOORD_0":36,
						"NORMAL":37
					},
					"indices":38,
					"material":9
				},
				{
					"attributes":{
						"POSITION":39,
						"TEXCOORD_0":40,
						"NORMAL":41
					},
					"indices":42,
					"material":10
				}
			]
		}
	],
	"textures":[
		{
			"sampler":0,
			"source":0
		},
		{
			"sampler":0,
			"source":1
		},
		{
			"sampler":0,
			"source":2
		},
		{
			"sampler":0,
			"source":0
		}
	],
	"images":[
		{
			"bufferView":12,
			"mimeType":"image/jpeg",
			"name":"grey plastic"
		},
		{
			"bufferView":17,
			"mimeType":"image/jpeg",
			"name":"black plastick"
		},
		{
			"bufferView":22,
			"mimeType":"image/jpeg",
			"name":"macbook screen"
		}
	],
	"accessors":[
		{
			"bufferView":0,
			"componentType":5126,
			"count":713,
			"max":[
				5.353000164031982,
				0,
				0.009000000543892384
			],
			"min":[
				0.07300000637769699,
				0,
				-0.6860000491142273
			],
			"type":"VEC3"
		},
		{
			"bufferView":1,
			"componentType":5126,
			"count":713,
			"type":"VEC2"
		},
		{
			"bufferView":2,
			"componentType":5126,
			"count":713,
			"type":"VEC3"
		},
		{
			"bufferView":3,
			"componentType":5123,
			"count":2103,
			"type":"SCALAR"
		},
		{
			"bufferView":4,
			"componentType":5126,
			"count":1042,
			"max":[
				0.7061107158660889,
				19.318269729614258,
				1.0000026226043701
			],
			"min":[
				-2.758939027786255,
				-74.70624542236328,
				-61.680015563964844
			],
			"type":"VEC3"
		},
		{
			"bufferView":5,
			"componentType":5126,
			"count":1042,
			"type":"VEC2"
		},
		{
			"bufferView":6,
			"componentType":5126,
			"count":1042,
			"type":"VEC3"
		},
		{
			"bufferView":7,
			"componentType":5123,
			"count":1920,
			"type":"SCALAR"
		},
		{
			"bufferView":8,
			"componentType":5126,
			"count":2774,
			"max":[
				-1.1811635494232178,
				19.8751277923584,
				0.6324692964553833
			],
			"min":[
				-2.828387975692749,
				-74.84442138671875,
				-61.680015563964844
			],
			"type":"VEC3"
		},
		{
			"bufferView":9,
			"componentType":5126,
			"count":2774,
			"type":"VEC2"
		},
		{
			"bufferView":10,
			"componentType":5126,
			"count":2774,
			"type":"VEC3"
		},
		{
			"bufferView":11,
			"componentType":5123,
			"count":4908,
			"type":"SCALAR"
		},
		{
			"bufferView":13,
			"componentType":5126,
			"count":109,
			"max":[
				-1.1821197271347046,
				19.318269729614258,
				-1.081217646598816
			],
			"min":[
				-1.5932292938232422,
				-74.37266540527344,
				-61.052703857421875
			],
			"type":"VEC3"
		},
		{
			"bufferView":14,
			"componentType":5126,
			"count":109,
			"type":"VEC2"
		},
		{
			"bufferView":15,
			"componentType":5126,
			"count":109,
			"type":"VEC3"
		},
		{
			"bufferView":16,
			"componentType":5123,
			"count":216,
			"type":"SCALAR"
		},
		{
			"bufferView":18,
			"componentType":5126,
			"count":8,
			"max":[
				-1.5590300559997559,
				17.302833557128906,
				-4.964393615722656
			],
			"min":[
				-1.5932292938232422,
				-72.61112213134766,
				-56.370643615722656
			],
			"type":"VEC3"
		},
		{
			"bufferView":19,
			"componentType":5126,
			"count":8,
			"type":"VEC2"
		},
		{
			"bufferView":20,
			"componentType":5126,
			"count":8,
			"type":"VEC3"
		},
		{
			"bufferView":21,
			"componentType":5123,
			"count":12,
			"type":"SCALAR"
		},
		{
			"bufferView":23,
			"componentType":5126,
			"count":110,
			"max":[
				-2.7226040363311768,
				-21.875896453857422,
				-28.861968994140625
			],
			"min":[
				-2.7351958751678467,
				-31.118762969970703,
				-39.90358352661133
			],
			"type":"VEC3"
		},
		{
			"bufferView":24,
			"componentType":5126,
			"count":110,
			"type":"VEC2"
		},
		{
			"bufferView":25,
			"componentType":5126,
			"count":110,
			"type":"VEC3"
		},
		{
			"bufferView":26,
			"componentType":5123,
			"count":318,
			"type":"SCALAR"
		},
		{
			"bufferView":27,
			"componentType":5126,
			"count":416,
			"max":[
				-1.1337695121765137,
				-37.19089889526367,
				-58.72296142578125
			],
			"min":[
				-1.3706269264221191,
				-38.184696197509766,
				-59.705657958984375
			],
			"type":"VEC3"
		},
		{
			"bufferView":28,
			"componentType":5126,
			"count":416,
			"type":"VEC2"
		},
		{
			"bufferView":29,
			"componentType":5126,
			"count":416,
			"type":"VEC3"
		},
		{
			"bufferView":30,
			"componentType":5123,
			"count":666,
			"type":"SCALAR"
		},
		{
			"bufferView":31,
			"componentType":5126,
			"count":32,
			"max":[
				-1.191537618637085,
				-37.53513717651367,
				-59.062828063964844
			],
			"min":[
				-1.1969411373138428,
				-37.840457916259766,
				-59.36357116699219
			],
			"type":"VEC3"
		},
		{
			"bufferView":32,
			"componentType":5126,
			"count":32,
			"type":"VEC2"
		},
		{
			"bufferView":33,
			"componentType":5126,
			"count":32,
			"type":"VEC3"
		},
		{
			"bufferView":34,
			"componentType":5123,
			"count":90,
			"type":"SCALAR"
		},
		{
			"bufferView":35,
			"componentType":5126,
			"count":440,
			"max":[
				1.0500428676605225,
				1,
				1.0000005960464478
			],
			"min":[
				-1.0000003576278687,
				-1,
				-1.0000003576278687
			],
			"type":"VEC3"
		},
		{
			"bufferView":36,
			"componentType":5126,
			"count":440,
			"type":"VEC3"
		},
		{
			"bufferView":37,
			"componentType":5123,
			"count":2628,
			"type":"SCALAR"
		},
		{
			"bufferView":38,
			"componentType":5126,
			"count":21678,
			"max":[
				4.200845718383789,
				0.014097131788730621,
				1.7960604429244995
			],
			"min":[
				-4.278171539306641,
				-0.04396418109536171,
				-1.4526028633117676
			],
			"type":"VEC3"
		},
		{
			"bufferView":39,
			"componentType":5126,
			"count":21678,
			"type":"VEC2"
		},
		{
			"bufferView":40,
			"componentType":5126,
			"count":21678,
			"type":"VEC3"
		},
		{
			"bufferView":41,
			"componentType":5123,
			"count":41184,
			"type":"SCALAR"
		},
		{
			"bufferView":42,
			"componentType":5126,
			"count":4,
			"max":[
				-4.175607204437256,
				0.014097118750214577,
				0.20526671409606934
			],
			"min":[
				-4.209568023681641,
				0.014097118750214577,
				0.1738046407699585
			],
			"type":"VEC3"
		},
		{
			"bufferView":43,
			"componentType":5126,
			"count":4,
			"type":"VEC2"
		},
		{
			"bufferView":44,
			"componentType":5126,
			"count":4,
			"type":"VEC3"
		},
		{
			"bufferView":45,
			"componentType":5123,
			"count":6,
			"type":"SCALAR"
		}
	],
	"bufferViews":[
		{
			"buffer":0,
			"byteLength":8556,
			"byteOffset":0,
			"target":34962
		},
		{
			"buffer":0,
			"byteLength":5704,
			"byteOffset":8556,
			"target":34962
		},
		{
			"buffer":0,
			"byteLength":8556,
			"byteOffset":14260,
			"target":34962
		},
		{
			"buffer":0,
			"byteLength":4206,
			"byteOffset":22816,
			"target":34963
		},
		{
			"buffer":0,
			"byteLength":12504,
			"byteOffset":27024,
			"target":34962
		},
		{
			"buffer":0,
			"byteLength":8336,
			"byteOffset":39528,
			"target":34962
		},
		{
			"buffer":0,
			"byteLength":12504,
			"byteOffset":47864,
			"target":34962
		},
		{
			"buffer":0,
			"byteLength":3840,
			"byteOffset":60368,
			"target":34963
		},
		{
			"buffer":0,
			"byteLength":33288,
			"byteOffset":64208,
			"target":34962
		},
		{
			"buffer":0,
			"byteLength":22192,
			"byteOffset":97496,
			"target":34962
		},
		{
			"buffer":0,
			"byteLength":33288,
			"byteOffset":119688,
			"target":34962
		},
		{
			"buffer":0,
			"byteLength":9816,
			"byteOffset":152976,
			"target":34963
		},
		{
			"buffer":0,
			"byteLength":14435,
			"byteOffset":162792
		},
		{
			"buffer":0,
			"byteLength":1308,
			"byteOffset":177228,
			"target":34962
		},
		{
			"buffer":0,
			"byteLength":872,
			"byteOffset":178536,
			"target":34962
		},
		{
			"buffer":0,
			"byteLength":1308,
			"byteOffset":179408,
			"target":34962
		},
		{
			"buffer":0,
			"byteLength":432,
			"byteOffset":180716,
			"target":34963
		},
		{
			"buffer":0,
			"byteLength":4650,
			"byteOffset":181148
		},
		{
			"buffer":0,
			"byteLength":96,
			"byteOffset":185800,
			"target":34962
		},
		{
			"buffer":0,
			"byteLength":64,
			"byteOffset":185896,
			"target":34962
		},
		{
			"buffer":0,
			"byteLength":96,
			"byteOffset":185960,
			"target":34962
		},
		{
			"buffer":0,
			"byteLength":24,
			"byteOffset":186056,
			"target":34963
		},
		{
			"buffer":0,
			"byteLength":100136,
			"byteOffset":186080
		},
		{
			"buffer":0,
			"byteLength":1320,
			"byteOffset":286216,
			"target":34962
		},
		{
			"buffer":0,
			"byteLength":880,
			"byteOffset":287536,
			"target":34962
		},
		{
			"buffer":0,
			"byteLength":1320,
			"byteOffset":288416,
			"target":34962
		},
		{
			"buffer":0,
			"byteLength":636,
			"byteOffset":289736,
			"target":34963
		},
		{
			"buffer":0,
			"byteLength":4992,
			"byteOffset":290372,
			"target":34962
		},
		{
			"buffer":0,
			"byteLength":3328,
			"byteOffset":295364,
			"target":34962
		},
		{
			"buffer":0,
			"byteLength":4992,
			"byteOffset":298692,
			"target":34962
		},
		{
			"buffer":0,
			"byteLength":1332,
			"byteOffset":303684,
			"target":34963
		},
		{
			"buffer":0,
			"byteLength":384,
			"byteOffset":305016,
			"target":34962
		},
		{
			"buffer":0,
			"byteLength":256,
			"byteOffset":305400,
			"target":34962
		},
		{
			"buffer":0,
			"byteLength":384,
			"byteOffset":305656,
			"target":34962
		},
		{
			"buffer":0,
			"byteLength":180,
			"byteOffset":306040,
			"target":34963
		},
		{
			"buffer":0,
			"byteLength":5280,
			"byteOffset":306220,
			"target":34962
		},
		{
			"buffer":0,
			"byteLength":5280,
			"byteOffset":311500,
			"target":34962
		},
		{
			"buffer":0,
			"byteLength":5256,
			"byteOffset":316780,
			"target":34963
		},
		{
			"buffer":0,
			"byteLength":260136,
			"byteOffset":322036,
			"target":34962
		},
		{
			"buffer":0,
			"byteLength":173424,
			"byteOffset":582172,
			"target":34962
		},
		{
			"buffer":0,
			"byteLength":260136,
			"byteOffset":755596,
			"target":34962
		},
		{
			"buffer":0,
			"byteLength":82368,
			"byteOffset":1015732,
			"target":34963
		},
		{
			"buffer":0,
			"byteLength":48,
			"byteOffset":1098100,
			"target":34962
		},
		{
			"buffer":0,
			"byteLength":32,
			"byteOffset":1098148,
			"target":34962
		},
		{
			"buffer":0,
			"byteLength":48,
			"byteOffset":1098180,
			"target":34962
		},
		{
			"buffer":0,
			"byteLength":12,
			"byteOffset":1098228,
			"target":34963
		}
	],
	"samplers":[
		{
			"magFilter":9729,
			"minFilter":9987
		}
	],
	"buffers":[
		{
			"byteLength":1098240,
			"uri":"data:application/octet-stream;base64,"
		}
	]
}
